<svg id="Layer_1" data-name="Layer 1" xmlns="http://www.w3.org/2000/svg" viewBox="0 0 457.52 573.85"><defs><style>.cls-1{fill:#993636;}</style></defs><path class="cls-1" d="M311.31,568.12q0-71.81,0-143.61c.06-81.85,53.7-148.49,133.62-166,91.26-20.05,185,44.15,199,135.92a191.41,191.41,0,0,1-2.6,72.55c-1.42,6.16-.94,9.16,6.19,11.82,62.18,23.19,102.34,67.3,116.88,131.85,21.21,94.09-35.7,186.19-129.15,211.5a183,183,0,0,1-44.94,6c-55.45.73-110.92.46-166.39.37-63.07-.1-112.41-49.49-112.55-112.65C311.21,666.61,311.3,617.36,311.31,568.12ZM506.94,751.47v.25c26,0,52,.33,78-.17a117.52,117.52,0,0,0,28.6-3.72c51.23-14.05,82.09-58.81,78-112.18-3.45-45-40-85.11-84.52-92.36-3.11-.51-7.57.55-9.82,2.6-35.61,32.53-78.73,48-125.21,56.42-17.11,3.08-34.62,5.52-50.9,11.22-20,7-31.7,22.33-31.88,44.58q-.24,29.67,0,59.34a36.3,36.3,0,0,0,1.89,11.48c5,14.25,17.16,22.38,33.75,22.49C452.19,751.59,479.56,751.47,506.94,751.47ZM389.47,539.75c16.47-3.82,32.23-7.76,48.11-11.08,19.54-4.08,39.55-6.28,58.7-11.66,51.29-14.41,81.21-61.55,72.11-111.53-8-43.8-49.37-76.49-93.3-73.69-45.92,2.92-84.41,41.14-85.54,86.42-1,39.06-.47,78.16-.59,117.24A30.25,30.25,0,0,0,389.47,539.75Z" transform="translate(-311.27 -254.79)"/><circle class="cls-1" cx="165.98" cy="171.54" r="37.97"/></svg>